<svg width="256" height="58" viewBox="0 0 256 58" fill="none" xmlns="http://www.w3.org/2000/svg">
<g clip-path="url(#clip0_65_610)">
<path d="M1.52609 43V42.244L4.83809 41.704V15.496L1.52609 14.992V14.2H12.1101V14.992L8.79809 15.496V42.136H19.5621L22.5141 34.216H23.4861V43H1.52609ZM40.6235 43.72C38.0075 43.72 35.6675 43.084 33.6035 41.812C31.5395 40.54 29.9315 38.764 28.7795 36.484C27.6275 34.18 27.0515 31.552 27.0515 28.6C27.0515 25.648 27.6275 23.032 28.7795 20.752C29.9315 18.448 31.5395 16.66 33.6035 15.388C35.6675 14.116 38.0075 13.48 40.6235 13.48C43.2395 13.48 45.5795 14.116 47.6435 15.388C49.7075 16.66 51.3155 18.448 52.4675 20.752C53.6195 23.032 54.1955 25.648 54.1955 28.6C54.1955 31.552 53.6195 34.18 52.4675 36.484C51.3155 38.764 49.7075 40.54 47.6435 41.812C45.5795 43.084 43.2395 43.72 40.6235 43.72ZM40.6235 42.892C42.3515 42.892 43.8995 42.436 45.2675 41.524C46.6595 40.612 47.7515 39.292 48.5435 37.564C49.3355 35.812 49.7315 33.748 49.7315 31.372V25.828C49.7315 23.452 49.3355 21.4 48.5435 19.672C47.7515 17.92 46.6595 16.588 45.2675 15.676C43.8995 14.764 42.3515 14.308 40.6235 14.308C38.8715 14.308 37.3115 14.764 35.9435 15.676C34.5755 16.588 33.4955 17.92 32.7035 19.672C31.9115 21.4 31.5155 23.452 31.5155 25.828V31.372C31.5155 33.748 31.9115 35.812 32.7035 37.564C33.4955 39.292 34.5755 40.612 35.9435 41.524C37.3115 42.436 38.8715 42.892 40.6235 42.892ZM79.5865 43.36C78.2425 43.36 77.2345 43.036 76.5625 42.388C75.8905 41.74 75.4345 40.636 75.1945 39.076L74.5105 34.252C74.2705 32.62 73.7065 31.348 72.8185 30.436C71.9545 29.5 70.5985 29.032 68.7505 29.032H65.9425V41.704L69.2545 42.244V43H58.6705V42.244L61.9825 41.704V15.496L58.6705 14.992V14.2H68.7505C72.6625 14.2 75.4945 14.812 77.2465 16.036C78.9985 17.26 79.8745 19.12 79.8745 21.616C79.8745 25.744 77.3785 28.132 72.3865 28.78V28.996C74.2345 29.26 75.7105 29.92 76.8145 30.976C77.9425 32.032 78.6505 33.436 78.9385 35.188L79.4065 38.284C79.5985 39.628 79.8145 40.54 80.0545 41.02C80.3185 41.5 80.7145 41.74 81.2425 41.74C81.6025 41.74 81.9865 41.632 82.3945 41.416C82.8025 41.176 83.1865 40.876 83.5465 40.516L84.1585 41.164C83.4625 41.956 82.7425 42.52 81.9985 42.856C81.2545 43.192 80.4505 43.36 79.5865 43.36ZM69.9745 28.168C71.7265 28.168 73.0825 27.64 74.0425 26.584C75.0265 25.504 75.5185 23.92 75.5185 21.832V21.076C75.5185 17.092 73.2625 15.1 68.7505 15.1H65.9425V28.168H69.9745ZM85.9067 43V42.244L89.2187 41.704V15.496L85.9067 14.992V14.2H107.579V22.444H106.607L103.835 15.1H93.1787V28.06H97.8587L99.9827 22.84H100.919V34.216H99.9827L97.8227 28.924H93.1787V42.136H104.483L107.435 34.216H108.371V43H85.9067ZM127.908 43.36L117.18 15.496V40.804L120.636 42.244V43H112.932V42.244L116.316 40.804V15.496L113.004 14.992V14.2H120.96L129.996 37.312L139.212 14.2H146.484V14.992L143.172 15.496V41.704L146.484 42.244V43H135.9V42.244L139.212 41.704V16.576L128.556 43.36H127.908Z" fill="white"/>
</g>
<defs>
<clipPath id="clip0_65_610">
<rect width="256" height="58" fill="white"/>
</clipPath>
</defs>
</svg>
